<?xml version="1.0" encoding="UTF-8" standalone="no"?><!DOCTYPE svg PUBLIC "-//W3C//DTD SVG 1.1//EN" "http://www.w3.org/Graphics/SVG/1.1/DTD/svg11.dtd"><svg width="100%" height="100%" viewBox="0 0 355 429" version="1.1" xmlns="http://www.w3.org/2000/svg" xmlns:xlink="http://www.w3.org/1999/xlink" xml:space="preserve" xmlns:serif="http://www.serif.com/" style="fill-rule:evenodd;clip-rule:evenodd;stroke-linejoin:round;stroke-miterlimit:2;"><path d="M293.914,169.115c0,-30.957 -12.297,-60.644 -34.183,-82.533c-21.889,-21.887 -51.576,-34.184 -82.533,-34.184c-30.957,0 -60.644,12.297 -82.533,34.184c-21.886,21.889 -34.183,51.576 -34.183,82.533c-0,30.956 12.297,60.643 34.183,82.533c21.889,21.886 51.576,34.183 82.533,34.183c30.945,-0.033 60.613,-12.342 82.496,-34.22c21.879,-21.883 34.187,-51.551 34.22,-82.496Zm-116.717,95.496c-25.327,-0 -49.615,-10.063 -67.526,-27.97c-17.908,-17.911 -27.97,-42.199 -27.97,-67.526c0,-25.328 10.062,-49.616 27.97,-67.527c17.911,-17.907 42.199,-27.969 67.526,-27.969c25.327,-0 49.615,10.062 67.527,27.969c17.907,17.911 27.969,42.199 27.969,67.527c-0.03,25.32 -10.099,49.593 -28.004,67.493c-17.9,17.904 -42.173,27.973 -67.493,28.004l0.001,-0.001Zm45.33,-131.402l0,-0.004c4.685,3.519 5.636,10.169 2.121,14.859l-54.963,72.404c-2.003,2.672 -5.148,4.245 -8.49,4.245c-3.356,-0.026 -6.506,-1.639 -8.486,-4.348l-22.962,-31.43c-3.457,-4.734 -2.424,-11.377 2.313,-14.833c4.733,-3.46 11.376,-2.424 14.832,2.313l14.537,19.907l46.284,-61.077c3.538,-4.633 10.155,-5.544 14.814,-2.039l0,0.003Zm63.534,153.684c12.948,0.651 25.55,-4.297 34.594,-13.582c5.981,-11.76 6.598,-25.527 1.695,-37.773c-1.921,-6.465 -2.639,-13.226 -2.12,-19.951c3.382,-5.447 7.778,-10.203 12.945,-14.003c11.446,-7.235 19.192,-19.081 21.219,-32.469c-2.028,-13.39 -9.773,-25.236 -21.219,-32.47c-5.167,-3.801 -9.563,-8.556 -12.945,-14.003c-0.518,-6.724 0.199,-13.485 2.12,-19.951c4.904,-12.246 4.286,-26.012 -1.695,-37.773c-9.411,-9.396 -22.378,-14.337 -35.653,-13.582c-6.631,0.067 -13.207,-1.232 -19.314,-3.819c-4.359,-5.025 -7.679,-10.869 -9.759,-17.19c-5.092,-11.883 -10.825,-25.465 -23.98,-29.709c-12.875,-2.161 -26.049,1.406 -36.078,9.763c-5.603,3.989 -11.953,6.805 -18.674,8.275c-6.721,-1.47 -13.071,-4.286 -18.674,-8.275c-10.04,-8.334 -23.203,-11.898 -36.078,-9.763c-13.156,4.245 -18.889,17.826 -23.98,29.709c-2.08,6.321 -5.399,12.164 -9.759,17.19c-6.106,2.587 -12.683,3.886 -19.314,3.819c-13.275,-0.755 -26.242,4.186 -35.653,13.582c-5.98,11.761 -6.598,25.527 -1.695,37.773c1.921,6.465 2.639,13.226 2.12,19.951c-3.382,5.447 -7.778,10.203 -12.945,14.003c-11.446,7.235 -19.192,19.081 -21.219,32.47c2.028,13.389 9.773,25.235 21.219,32.469c5.167,3.801 9.563,8.556 12.945,14.003c0.519,6.725 -0.199,13.485 -2.12,19.951c-4.904,12.246 -4.285,26.013 1.695,37.773c9.044,9.285 21.646,14.233 34.594,13.582l-56.239,73.426c-2.513,3.456 -2.738,8.071 -0.574,11.757c2.165,3.682 6.306,5.732 10.551,5.222l48.81,-6.58l6.579,49.019l-0.003,0c0.632,4.215 3.726,7.642 7.853,8.7c0.899,0.248 1.828,0.389 2.76,0.426c3.335,-0.022 6.469,-1.591 8.486,-4.245l80.005,-104.837c0.378,-0.281 0.896,-0.281 1.274,0l80.005,104.837c2.017,2.654 5.151,4.223 8.486,4.245c0.932,-0.037 1.861,-0.178 2.76,-0.426c4.127,-1.058 7.22,-4.485 7.853,-8.7l6.58,-49.019l48.809,6.58l-0.003,-0c4.244,0.51 8.385,-1.54 10.551,-5.222c2.164,-3.686 1.939,-8.301 -0.574,-11.757l-56.241,-73.426Zm-190.992,104.619l-4.456,-34.164l0.004,-0.004c-0.918,-5.803 -6.266,-9.836 -12.098,-9.126l-33.955,4.671l46.052,-60.27c3.253,4.741 5.891,9.877 7.849,15.28c5.092,11.883 10.825,25.465 23.98,29.709c4.326,1.373 8.934,1.595 13.37,0.637l-40.746,53.267Zm82.126,-93.161l0.004,-0c-2.58,0.037 -5.148,0.396 -7.638,1.058c-0.211,0 -0.211,0 -0.426,0.211l-0,0.004c-0.888,0.007 -1.762,0.225 -2.546,0.636c-0.211,0 -0.426,0.211 -0.848,0.211l-0.003,0c-6.295,2.443 -12.338,5.499 -18.037,9.126c-6.366,3.819 -15.281,9.126 -18.674,7.853c-4.034,-1.273 -8.064,-10.825 -11.035,-18.037l-0,-0.004c-3.198,-9.899 -8.989,-18.767 -16.764,-25.676c-2.554,-1.913 -5.429,-3.353 -8.49,-4.245c-1.125,-0.573 -2.35,-0.936 -3.608,-1.062c-5.847,-1.45 -11.813,-2.375 -17.826,-2.757c-7.638,-0.636 -18.037,-1.698 -20.372,-4.881c-2.336,-3.182 -0,-13.156 1.698,-20.584l0,-0.003c3.29,-10.07 3.879,-20.828 1.699,-31.194c-4.297,-9.389 -10.951,-17.505 -19.31,-23.555c-6.155,-5.306 -13.793,-12.098 -13.793,-16.338c-0,-4.245 7.638,-11.035 13.793,-16.554l-0,-0.003c8.396,-5.925 15.061,-13.982 19.31,-23.345c2.18,-10.365 1.591,-21.124 -1.699,-31.193c-1.698,-7.428 -4.033,-17.401 -1.698,-20.584c2.335,-3.183 12.733,-4.245 20.372,-4.881c10.518,0.026 20.846,-2.757 29.924,-8.068c7.775,-6.909 13.567,-15.776 16.764,-25.676c2.972,-7.216 7.002,-16.764 11.035,-18.037c0.318,-0.192 0.692,-0.27 1.062,-0.214c6.306,1.609 12.272,4.34 17.612,8.063c8.678,6.273 18.848,10.152 29.499,11.251c10.65,-1.1 20.82,-4.978 29.498,-11.251c6.366,-3.819 15.281,-8.911 18.674,-7.853c4.034,1.274 8.064,10.825 11.035,18.038l0,0.003c3.198,9.899 8.989,18.767 16.764,25.676c9.078,5.311 19.406,8.094 29.924,8.068c7.638,0.636 18.037,1.698 20.373,4.881c2.335,3.182 -0,13.156 -1.699,20.584c-3.29,10.069 -3.878,20.827 -1.699,31.193c4.249,9.363 10.914,17.42 19.311,23.345c6.154,5.517 13.793,12.308 13.793,16.553c-0,4.245 -7.639,11.035 -13.793,16.339l-0,0.003c-8.36,6.051 -15.014,14.167 -19.311,23.555c-2.179,10.365 -1.591,21.124 1.699,31.194c1.699,7.427 4.034,17.4 1.699,20.583c-2.335,3.184 -12.734,4.245 -20.373,4.882l0,0.003c-6.532,0.385 -13.005,1.451 -19.314,3.183c-0.211,-0 -0.426,0.211 -0.637,0.211c-3.593,0.899 -6.979,2.483 -9.973,4.67c-7.775,6.909 -13.566,15.776 -16.764,25.676c-2.971,7.216 -7.001,16.764 -11.035,18.037c-3.397,1.062 -12.308,-4.034 -18.674,-7.853l0,0.004c-5.699,-3.627 -11.742,-6.683 -18.037,-9.126c-0.425,0 -0.636,-0.211 -0.847,-0.211l-0.004,0c-0.784,-0.411 -1.658,-0.629 -2.546,-0.636c-0.211,-0.211 -0.211,-0.211 -0.426,-0.211l0,-0.004c-2.49,-0.662 -5.058,-1.021 -7.638,-1.058l-0.005,-0Zm98.679,49.871l0.004,-0.004c-5.832,-0.71 -11.18,3.323 -12.098,9.126l-4.456,34.164l-40.745,-53.264c1.951,0.433 3.945,0.647 5.944,0.636c2.527,-0.026 5.033,-0.455 7.427,-1.273c13.156,-4.244 18.889,-17.826 23.98,-29.709c1.958,-5.403 4.596,-10.539 7.849,-15.28l46.052,60.27l-33.957,-4.666Z" style="fill:#f80;fill-rule:nonzero;"/></svg>