<?xml version="1.0" encoding="UTF-8" standalone="no"?><!DOCTYPE svg PUBLIC "-//W3C//DTD SVG 1.1//EN" "http://www.w3.org/Graphics/SVG/1.1/DTD/svg11.dtd"><svg width="100%" height="100%" viewBox="0 0 469 438" version="1.1" xmlns="http://www.w3.org/2000/svg" xmlns:xlink="http://www.w3.org/1999/xlink" xml:space="preserve" xmlns:serif="http://www.serif.com/" style="fill-rule:evenodd;clip-rule:evenodd;stroke-linecap:round;stroke-linejoin:round;stroke-miterlimit:1.5;"><g><path d="M385.073,24.298c39.353,-0 71.303,20.865 71.303,46.564c0,25.7 -31.95,46.565 -71.303,46.565c-7.282,0 -14.31,-0.714 -20.93,-2.041c-7.214,-1.447 -26.125,26.028 -32.166,23.257c-5.539,-2.541 1.683,-35.231 -2.546,-38.673c-9.797,-7.975 -15.661,-18.098 -15.661,-29.108c0,-25.699 31.95,-46.564 71.303,-46.564Z" style="fill:none;stroke:#f80;stroke-width:14.37px;"/><circle cx="349.227" cy="61.981" r="1.063" style="fill:none;stroke:#f80;stroke-width:7.98px;"/><circle cx="366.731" cy="61.981" r="1.063" style="fill:none;stroke:#f80;stroke-width:7.98px;"/><circle cx="384.01" cy="61.981" r="1.063" style="fill:none;stroke:#f80;stroke-width:7.98px;"/><circle cx="401.289" cy="61.981" r="1.063" style="fill:none;stroke:#f80;stroke-width:7.98px;"/><circle cx="418.568" cy="61.981" r="1.063" style="fill:none;stroke:#f80;stroke-width:7.98px;"/><path d="M183.023,229.241c-37.109,-3.929 -60.889,-25.126 -69.723,-65.684c-0.531,-2.461 -2.577,-4.306 -5.079,-4.581c-0.002,-0.009 -0.004,-0.009 -0.007,-0.009c-2.528,-0.278 -4.575,-2.182 -5.035,-4.684c-1.924,-10.472 -6.766,-36.829 -6.766,-36.829c-0,-0 -0.526,-2.728 -0.933,-4.836c-0.119,-0.619 0.027,-1.26 0.403,-1.766c0.377,-0.505 0.948,-0.83 1.575,-0.894c0.003,0 0.006,-0 0.008,-0c5.447,-0.555 9.521,-5.252 9.301,-10.722c-1.869,-44.679 20.99,-72.187 72.228,-74.938c49.923,3.896 79.078,33.062 74.736,86.123c-0,-0 0.003,-0 0.009,-0c3.546,-0.004 6.91,1.573 9.174,4.303c2.263,2.73 3.192,6.327 2.532,9.811c-1.561,8.241 -3.48,18.375 -4.822,25.458c-0.996,5.263 -5.098,9.389 -10.355,10.417c-1.51,0.295 -2.607,0.51 -2.607,0.51c-12.353,44.645 -35.066,66.998 -64.639,68.321Z" style="fill:none;stroke:#f80;stroke-width:14.37px;"/><path d="M187.945,369.782c-1.553,2.436 -4.249,3.903 -7.138,3.884c-2.889,-0.02 -5.565,-1.523 -7.085,-3.98c-12.768,-20.643 -39.026,-63.099 -45.419,-73.434c-0.927,-1.499 -1.359,-3.251 -1.234,-5.009c0.605,-8.551 2.506,-35.433 3.703,-52.345c0.21,-2.978 -1.176,-5.845 -3.643,-7.528c-2.466,-1.683 -5.641,-1.93 -8.338,-0.649c-17.962,8.537 -48.713,23.151 -53.474,25.413c-0.44,0.209 -0.861,0.456 -1.258,0.738c-18.756,13.308 -28.907,27.395 -30.047,42.302c-0.025,0.323 -0.068,0.645 -0.13,0.964c-7.873,40.584 -9.431,73.935 -7.068,102.803c0.342,3.858 3.28,6.98 7.109,7.557c96.879,14.447 193.758,14.12 290.637,1.058c4.267,-0.581 7.402,-4.297 7.257,-8.601c-0.784,-23.373 -3.152,-93.812 -3.671,-109.264c-0.066,-1.95 -0.809,-3.817 -2.101,-5.279c-5.811,-6.573 -22.588,-25.55 -27.408,-31.002c-0.861,-0.974 -1.936,-1.735 -3.142,-2.222c-7.35,-2.974 -35.093,-14.199 -51.585,-20.871c-2.693,-1.09 -5.758,-0.71 -8.104,1.004c-2.345,1.714 -3.638,4.519 -3.419,7.416c1.184,15.601 3.05,40.189 3.674,48.421c0.138,1.81 -0.316,3.616 -1.291,5.148c-6.656,10.443 -33.715,52.904 -46.825,73.476Z" style="fill:none;stroke:#f80;stroke-width:14.37px;"/><path d="M187.354,325.723c-0.827,2.159 -2.887,3.594 -5.199,3.621c-2.311,0.027 -4.405,-1.36 -5.281,-3.499c-4.564,-11.144 -10.723,-26.182 -13.05,-31.863c-0.601,-1.466 -0.557,-3.117 0.122,-4.549c1.688,-3.564 4.971,-10.495 6.762,-14.275c0.776,-1.64 0.716,-3.553 -0.162,-5.141c-1.678,-3.033 -4.575,-8.27 -7.066,-12.773c-0.966,-1.746 -0.937,-3.872 0.077,-5.591c1.013,-1.719 2.86,-2.774 4.855,-2.774c7.467,0 17.777,0 25.129,0c1.954,0 3.768,1.012 4.795,2.673c1.027,1.662 1.12,3.737 0.247,5.484c-1.89,3.779 -3.997,7.994 -5.285,10.569c-0.766,1.532 -0.794,3.328 -0.076,4.883c1.789,3.876 5.235,11.342 6.933,15.021c0.637,1.38 0.689,2.958 0.146,4.377c-2.239,5.851 -8.441,22.059 -12.947,33.837Z" style="fill:none;stroke:#f80;stroke-width:14.37px;"/><rect x="-0" y="0" width="468.387" height="437.653" style="fill:none;"/></g></svg>