<?xml version="1.0" encoding="UTF-8" standalone="no"?><!DOCTYPE svg PUBLIC "-//W3C//DTD SVG 1.1//EN" "http://www.w3.org/Graphics/SVG/1.1/DTD/svg11.dtd"><svg width="100%" height="100%" viewBox="0 0 417 438" version="1.1" xmlns="http://www.w3.org/2000/svg" xmlns:xlink="http://www.w3.org/1999/xlink" xml:space="preserve" xmlns:serif="http://www.serif.com/" style="fill-rule:evenodd;clip-rule:evenodd;stroke-linecap:round;stroke-linejoin:round;stroke-miterlimit:1.5;"><g><rect x="-0" y="0" width="416.667" height="437.653" style="fill:#ebebeb;fill-opacity:0;"/><g><path d="M139.623,18.48c-26.408,29.851 -24.514,59.702 6.015,89.553c51.764,32.124 70.344,77.234 54.951,135.638l-43.525,133.3c-12.034,1.81 -18.544,7.881 -20.114,17.764l0.258,27.315l35.831,0.636" style="fill:none;stroke:#f80;stroke-width:15.25px;"/><path d="M139.623,18.48l53.465,29.405l40.098,0.065c26.492,6.295 44.614,21.926 52.128,49.39l18.712,109.789c-1.575,47.077 -49.873,44.888 -59.479,11.842l0,-106.26" style="fill:none;stroke:#f80;stroke-width:15.25px;"/><path d="M302.603,282.097l34.17,45.808c19.981,27.356 15.89,58.36 -2.673,91.557l-123.636,0l-0.447,-20.748c2.373,-11.174 8.357,-16.767 17.154,-18.013l54.801,-1.337c-24.733,-3.5 -35.798,-12.721 -35.42,-26.732" style="fill:none;stroke:#f80;stroke-width:15.25px;"/><path d="M382.678,360.145c17.867,24.613 6.236,53.61 -23.851,59.317l-25.162,0" style="fill:none;stroke:#f80;stroke-width:15.25px;"/></g><path d="M55.439,258.645l10.696,-10.697c4.277,-4.277 4.277,-11.221 0,-15.499c-4.277,-4.277 -11.221,-4.277 -15.498,0l-5.399,5.399l-5.878,-5.878c-4.013,-4.012 -10.528,-4.012 -14.541,0c-4.013,4.013 -4.013,10.529 -0,14.541l14.378,14.378c2.4,2.4 4.618,5.015 7.737,4.544c2.097,-0.316 5.191,-2.931 6.804,-4.544c0.683,-0.684 1.251,-1.44 1.701,-2.244Z" style="fill:#f80;stroke:#f80;stroke-width:1.69px;"/></g></svg>